<?xml version="1.0" standalone="no"?>
<!DOCTYPE svg PUBLIC "-//W3C//DTD SVG 20010904//EN"
 "http://www.w3.org/TR/2001/REC-SVG-20010904/DTD/svg10.dtd">
<svg version="1.0" xmlns="http://www.w3.org/2000/svg"
 width="227.000000pt" height="222.000000pt" viewBox="0 0 227.000000 222.000000"
 preserveAspectRatio="xMidYMid meet">

<g transform="translate(0.000000,222.000000) scale(0.100000,-0.100000)"
fill="#000000" stroke="none">
<path d="M1055 2210 c-118 -19 -222 -51 -321 -100 -288 -140 -473 -367 -564
-690 -25 -88 -38 -324 -22 -407 10 -59 5 -64 -39 -32 l-29 20 0 -53 c0 -51 -1
-54 -40 -78 -44 -27 -43 -32 18 -49 23 -6 42 -16 42 -20 0 -5 7 -25 16 -46
l15 -38 29 34 c15 19 30 32 32 29 1 -3 21 -39 42 -80 21 -41 52 -93 68 -115
l29 -40 -43 -8 c-102 -20 -97 -12 -38 -72 l53 -53 -13 -67 c-7 -36 -10 -68 -7
-71 3 -3 33 9 66 26 l60 32 66 -36 67 -37 -7 40 -7 40 68 -45 c182 -122 379
-184 584 -184 l99 0 11 -57 12 -57 42 49 42 48 63 -6 c57 -6 62 -5 56 11 -17
40 -17 52 -1 52 28 0 209 82 276 125 79 51 163 125 231 202 73 82 104 130 154
235 132 277 136 613 9 886 -138 300 -404 517 -723 591 -108 25 -302 35 -396
21z m330 -205 c235 -68 423 -204 551 -396 285 -428 171 -999 -259 -1291 -71
-48 -201 -110 -205 -98 -2 5 4 23 13 40 9 18 14 34 12 37 -3 3 -31 -1 -62 -7
l-57 -12 -43 42 c-46 45 -55 42 -55 -23 0 -55 -13 -64 -56 -43 -84 39 -244
155 -244 175 0 4 19 18 42 31 l42 24 -43 18 -43 18 25 42 c37 64 86 185 93
230 6 37 7 38 25 22 18 -16 19 -16 19 4 0 36 12 52 49 68 l36 15 -35 19 c-28
14 -36 25 -40 55 l-5 37 -28 -22 c-22 -17 -35 -21 -63 -16 l-35 7 15 -34 c13
-31 12 -37 -6 -66 -17 -27 -18 -31 -4 -31 9 0 16 -6 16 -13 0 -25 -42 -141
-73 -202 l-30 -60 -10 35 -9 35 -34 -40 c-18 -22 -34 -43 -34 -48 0 -4 -29 -6
-65 -5 l-64 3 14 -22 c8 -13 22 -34 30 -47 15 -23 15 -24 -16 -30 -17 -3 -68
-6 -112 -6 l-81 0 33 34 33 34 -73 12 -74 12 -30 66 c-24 55 -31 62 -40 48
-30 -51 -33 -53 -55 -26 -11 14 -36 55 -55 93 -28 52 -33 67 -21 67 22 0 20 7
-14 50 -30 37 -30 38 -15 80 19 53 19 61 0 54 -19 -8 -19 -9 11 78 14 40 28
81 31 90 3 9 19 22 36 27 27 10 35 8 83 -29 29 -22 56 -40 59 -40 3 0 5 30 5
68 l0 67 61 38 c57 35 66 38 127 35 l65 -3 -26 -31 c-31 -36 -23 -44 41 -44
33 0 40 -5 62 -40 14 -22 28 -40 31 -40 3 0 14 20 23 45 15 37 23 46 54 55 20
5 43 10 50 10 22 0 13 17 -23 44 -33 25 -35 31 -35 82 l0 56 -46 -27 c-45 -26
-47 -27 -88 -11 -54 21 -59 20 -51 -4 5 -15 2 -20 -13 -20 -10 0 -67 -5 -126
-11 -66 -6 -112 -7 -117 -2 -5 5 -18 38 -27 73 l-18 63 -45 -56 c-42 -55 -45
-57 -92 -57 -56 0 -56 -2 -7 106 114 253 362 452 645 517 110 26 113 26 250
22 104 -3 148 -8 220 -30z m-1146 -703 l20 -29 -35 -104 c-20 -57 -38 -106
-41 -109 -9 -8 6 192 17 233 6 20 13 37 15 37 2 0 13 -13 24 -28z m514 -933
c-6 -23 -2 -23 61 -4 l48 15 41 -35 c45 -38 57 -43 57 -20 0 20 10 19 34 -4
12 -11 60 -44 108 -74 64 -40 83 -57 71 -61 -14 -6 -14 -8 3 -22 17 -14 11
-14 -71 -9 -153 11 -276 44 -397 105 -61 31 -173 103 -181 118 -3 4 48 8 113
9 111 1 117 0 113 -18z"/>
</g>
</svg>
